<?xml version="1.0" ?><svg style="enable-background:new 0 0 48 48.00004;" version="1.1" viewBox="0 0 48 48.00004" xml:space="preserve" xmlns="http://www.w3.org/2000/svg" xmlns:xlink="http://www.w3.org/1999/xlink"><g id="Icons"><g id="Icons_1_"><g><path d="M24.005,8.65502c-8.48,0-15.35,6.87-15.35,15.34c0,8.48,6.87,15.35,15.35,15.35     c8.47,0,15.34-6.87,15.34-15.35C39.345,15.52502,32.475,8.65502,24.005,8.65502z M29.825,17.29502c0,0-0.5-0.02-2.22,0     c-1.68,0.02-1.7,1.28-1.7,1.34l-0.02,3.19l3.94,0.08l-0.58,4.07h-3.34l0.0438,8.6083l-4.2759,0.0017l-0.0379-8.59l-3.55-0.02     l0.09-4.15h3.5v-3c0.01-0.32,0.04-0.64,0.08-0.96c0.09-0.7,0.28-1.4,0.61-2.03c0.29-0.54,0.69-1.02,1.18-1.39     c0.5-0.38,1.09-0.64,1.7-0.8c0.43-0.12,0.87-0.2,1.31-0.21c0.57-0.02,2.81,0.05,3.37,0.06L29.825,17.29502z" style="fill:#5F83CF;"/></g></g></g></svg>